<svg id="Layer_1" data-name="Layer 1" xmlns="http://www.w3.org/2000/svg" viewBox="0 0 560 463.69"><defs><style>.cls-1{fill:#04f;}</style></defs><path class="cls-1" d="M546.4,95V471.36a27,27,0,0,1-26.88,26.88h-439A27,27,0,0,1,53.6,471.36V95H20V505a27,27,0,0,0,26.88,26.88H553.12A27,27,0,0,0,580,505V95Z" transform="translate(-20 -68.16)"/><path class="cls-1" d="M300,95A246.71,246.71,0,0,0,76,95V484.8c0,7.41,5.69,10.5,12.8,7.37A246.73,246.73,0,0,1,300,498.24a246.73,246.73,0,0,1,211.2-6.07c7.11,3.13,12.8,0,12.8-7.37V95A246.71,246.71,0,0,0,300,95ZM347,310c5.62,13.74,15.31,29.29,29.07,49.25-20-13.76-35.51-23.45-49.25-29.07C312,352.7,306.27,387.65,300,444.48c-6.27-56.83-12-91.78-26.78-114.32-13.74,5.62-29.29,15.31-49.25,29.07,13.76-20,23.45-35.51,29.07-49.25-22.54-14.74-57.49-20.51-114.32-26.78,56.83-6.28,91.78-12.05,114.32-26.79-5.62-13.74-15.31-29.29-29.07-49.24,20,13.75,35.51,23.43,49.25,29.06C288,213.69,293.73,178.74,300,121.92c6.27,56.82,12,91.77,26.78,114.31,13.74-5.63,29.29-15.31,49.25-29.06-13.76,20-23.45,35.5-29.07,49.24,22.54,14.74,57.49,20.51,114.32,26.79C404.45,289.47,369.5,295.24,347,310Z" transform="translate(-20 -68.16)"/></svg>